<svg width="30" height="30" viewBox="0 0 30 30" fill="none" xmlns="http://www.w3.org/2000/svg">
<path d="M2.72727 0C1.23673 0 0 1.23673 0 2.72727L0 27.2727C0 28.7633 1.23673 30 2.72727 30L27.2727 30C28.7633 30 30 28.7633 30 27.2727L30 2.72727C30 1.23673 28.7633 0 27.2727 0L2.72727 0ZM2.72727 2.72727L27.2727 2.72727L27.2727 27.2727L20.1989 27.2727L20.1989 18.0682H23.7358L24.2472 13.9773L20.1989 13.9773V11.3352C20.1989 10.1434 20.4931 9.33239 22.2017 9.33239L24.4176 9.33239L24.4176 5.625C24.0399 5.57455 22.727 5.49716 21.2216 5.49716C18.0798 5.49716 15.9375 7.38682 15.9375 10.9091L15.9375 13.9773L12.358 13.9773V18.0682H15.9375L15.9375 27.2727L2.72727 27.2727L2.72727 2.72727Z" fill="#00202A"/>
</svg>
