<svg width="58" height="39" viewBox="0 0 58 39" fill="none" xmlns="http://www.w3.org/2000/svg">
<path d="M38.9482 38.5869L38.9482 35.584C43.2451 33.3379 46.3213 30.9941 48.1768 28.5527C50.0322 26.1113 50.96 23.4502 50.96 20.5693C50.96 18.8604 50.7158 17.6885 50.2275 17.0537C49.7881 16.3701 49.251 16.0283 48.6162 16.0283C47.9814 16.0283 47.127 16.1992 46.0527 16.541C44.9785 16.9316 44.002 17.127 43.123 17.127C41.1211 17.127 39.3877 16.3701 37.9229 14.8564C36.4092 13.3916 35.6523 11.585 35.6523 9.43652C35.6523 7.09277 36.5557 5.06641 38.3623 3.35742C40.1689 1.69727 42.415 0.867188 45.1006 0.867188C48.3721 0.867188 51.3262 2.2832 53.9629 5.11523C56.5996 7.94727 57.918 11.4385 57.918 15.5889C57.918 20.4717 56.3066 25.0127 53.084 29.2119C49.8125 33.46 45.1006 36.585 38.9482 38.5869ZM4.01172 38.3672V35.584C8.94336 32.752 12.1904 30.2129 13.7529 27.9668C15.3154 25.7207 16.0967 23.084 16.0967 20.0566C16.0967 18.6895 15.8281 17.6641 15.291 16.9805C14.7539 16.2969 14.1924 15.9551 13.6064 15.9551C13.0693 15.9551 12.2637 16.1504 11.1895 16.541C10.1152 16.9316 9.04102 17.127 7.9668 17.127C5.96484 17.127 4.23145 16.3945 2.7666 14.9297C1.25293 13.5137 0.496094 11.7559 0.496094 9.65625C0.496094 7.26367 1.44824 5.18848 3.35254 3.43066C5.20801 1.67285 7.50293 0.793945 10.2373 0.793945C13.46 0.793945 16.3652 2.18555 18.9531 4.96875C21.541 7.75195 22.835 11.2188 22.835 15.3691C22.835 20.4961 21.1992 25.1592 17.9277 29.3584C14.6562 33.6064 10.0176 36.6094 4.01172 38.3672Z" fill="#F0CB06"/>
</svg>
